<?xml version="1.0" encoding="UTF-8" standalone="no"?>
<!DOCTYPE svg PUBLIC "-//W3C//DTD SVG 1.1//EN" "http://www.w3.org/Graphics/SVG/1.1/DTD/svg11.dtd">
<svg width="100%" height="100%" viewBox="0 0 1080 1080" version="1.1" xmlns="http://www.w3.org/2000/svg" xmlns:xlink="http://www.w3.org/1999/xlink" xml:space="preserve" xmlns:serif="http://www.serif.com/" style="fill-rule:evenodd;clip-rule:evenodd;stroke-linecap:round;stroke-linejoin:round;stroke-miterlimit:1.5;">
    <g transform="matrix(-0.929531,0,0,-1.01073,1116.07,678.02)">
        <path d="M623.252,140.157C631.742,145.991 654.302,162.712 675.97,189.24M562.229,188.099C583.976,161.496 606.924,145.739 615.864,140.15" style="fill:none;stroke:black;stroke-width:11.98px;"/>
    </g>
    <g transform="matrix(-0.929531,0,0,-1.01073,1116.07,678.02)">
        <path d="M615.864,140.15C616.182,139.951 616.483,139.765 616.765,139.592" style="fill:none;stroke:black;stroke-width:11.98px;"/>
    </g>
    <g transform="matrix(1.70752e-16,-0.929531,1.01073,1.85669e-16,400.688,1117.36)">
        <path d="M677.177,190.728C701.343,220.775 724.048,263.039 724.426,316.02C725.174,420.898 619.746,494.207 619.746,494.207C619.746,494.207 513.502,424.603 515.065,316.02C515.827,263.061 535.71,222.473 557.944,193.508C586.6,156.177 619.163,138.153 619.738,137.837L619.746,137.833C619.746,137.833 621.686,139.035 625.039,141.402" style="fill:none;stroke:black;stroke-width:11.98px;"/>
    </g>
    <g transform="matrix(1.70752e-16,-0.929531,1.01073,1.85669e-16,400.688,1117.36)">
        <path d="M624.154,140.781C624.437,140.978 624.732,141.186 625.039,141.402" style="fill:none;stroke:black;stroke-width:11.98px;"/>
    </g>
    <g transform="matrix(-0.657278,-0.657278,0.714696,-0.714696,851.648,1043)">
        <path d="M719.703,355.626C699.292,438.895 619.746,494.207 619.746,494.207C619.746,494.207 537.7,440.456 518.868,353.737" style="fill:none;stroke:black;stroke-width:11.98px;"/>
    </g>
    <g transform="matrix(-0.657278,0.657278,-0.714696,-0.714696,1036.33,228.311)">
        <path d="M719.703,355.626C699.292,438.895 619.746,494.207 619.746,494.207C619.746,494.207 537.7,440.456 518.868,353.737" style="fill:none;stroke:black;stroke-width:11.98px;"/>
    </g>
    <g transform="matrix(0.657278,0.657278,-0.714696,0.714696,221.636,43.6335)">
        <path d="M719.703,355.626C699.292,438.895 619.746,494.207 619.746,494.207C619.746,494.207 537.7,440.456 518.868,353.737" style="fill:none;stroke:black;stroke-width:11.98px;"/>
    </g>
    <g transform="matrix(0.674605,-0.674605,0.733537,0.733537,22.7283,857.459)">
        <path d="M719.703,355.626C699.292,438.895 619.746,494.207 619.746,494.207C619.746,494.207 537.7,440.456 518.868,353.737" style="fill:none;stroke:black;stroke-width:11.67px;"/>
    </g>
    <g transform="matrix(0.929531,-9.25626e-17,1.00649e-16,1.01073,-36.0667,401.98)">
        <path d="M680.277,194.663C639.686,168.309 620.088,138.362 619.744,137.834M680.277,194.663C639.686,168.309 620.088,138.362 619.744,137.834M557.944,193.508C586.6,156.177 619.163,138.153 619.738,137.837" style="fill:none;stroke:black;stroke-width:11.98px;"/>
    </g>
    <g transform="matrix(3.55877e-16,0.929531,-1.01073,3.86966e-16,679.312,-34.7747)">
        <path d="M614.431,141.058C608.088,148.865 589.907,169.613 561.061,189.541M680.277,194.663C639.686,168.309 620.088,138.362 619.744,137.834" style="fill:none;stroke:black;stroke-width:11.98px;"/>
    </g>
    <g transform="matrix(1,0,0,1,0,98.6056)">
        <path d="M539.999,442.691L540.004,442.687C540.324,443.222 558.541,473.49 596.272,500.127C617.626,530.204 636.974,571.534 637.31,622.786C638.005,728.79 540.006,802.885 540.006,802.885C540.006,802.885 441.249,732.535 442.702,622.786C443.411,569.259 461.892,528.235 482.56,498.959" style="fill:none;stroke:black;stroke-width:11.63px;"/>
    </g>
    <g transform="matrix(1,0,0,1,0,98.6056)">
        <path d="M482.56,498.959C452.482,520.312 411.152,539.66 359.9,539.996C253.896,540.691 179.801,442.692 179.801,442.692C179.801,442.692 250.152,343.936 359.9,345.389C415.918,346.13 458.242,366.336 487.737,388.143C507.878,414.957 528.849,431.856 536.741,437.753C538.882,440.824 539.96,442.626 539.999,442.691C539.465,443.011 509.196,461.228 482.56,498.959Z" style="fill:none;stroke:black;stroke-width:11.63px;"/>
    </g>
    <g transform="matrix(1,0,0,1,0,98.6056)">
        <path d="M543.608,437.76C541.303,439.326 540,440.102 540,440.102C540,440.102 538.828,439.312 536.741,437.753M487.737,388.143C464.86,357.687 443.053,314.442 442.696,260.003C442.001,153.999 540,79.903 540,79.903C540,79.903 638.757,150.254 637.304,260.003C636.55,316.949 615.681,359.744 593.463,389.296" style="fill:none;stroke:black;stroke-width:11.63px;"/>
    </g>
    <path d="M262.465,430.093C257.92,414.439 246.831,380.462 238.62,355.829C237.398,352.163 232.826,305.521 236.572,276.121C237.638,267.755 239.438,260.689 241.891,255.981C244.554,250.868 248.199,247.922 252.118,246.824C252.444,246.733 291.22,240.067 334.105,242.974C363.178,244.945 394.039,251.397 416.467,266.648C418.226,267.844 422.783,270.144 427.092,272.235C428.91,265.874 432.501,257.117 437.486,247.128C448.973,224.113 467.877,194.103 487.623,172.152C501.762,156.433 516.582,144.933 529.457,141.715C543.026,138.322 559.508,145.082 575.731,159.052C606.409,185.471 637.607,237.021 648.663,270.064C716.401,249.956 732.494,244.239 820.24,246.539C823.315,246.62 826.082,248.427 827.392,251.211C848.841,296.795 841.094,298.537 834.755,358.754C830.327,400.823 829.843,405.064 817.112,429.924C834.907,435.398 870.63,449.531 900.906,482.835C917.368,500.943 923.773,496.595 946.382,547.848C947.48,550.336 947.262,553.208 945.802,555.503C941.363,562.478 912.461,607.559 871.959,627.81C843.462,642.059 842.848,646.941 818.495,656.907C834.843,690.926 835.404,696.2 835.404,766.636C835.404,784.017 837.586,816.848 835.729,829.341C835.113,833.488 833.777,836.291 832.615,837.712L830.882,839.372L829.189,840.372L825.619,841.185C698.242,843.785 687.013,831.109 650.164,819.73C646.174,829.962 637.605,849.816 616.654,870.767C602.31,885.111 592.394,905.04 535.562,943.359C532.352,945.524 528.06,945.127 525.301,942.41C493.953,911.543 454.086,897.9 431.814,817.132C398.815,823.815 329.881,845.222 252.899,837.524L248.964,836.618L245.513,834.417L243.088,831.246C242.443,830.06 241.802,828.466 241.269,826.253C239.623,819.429 238.595,803.398 237.123,765.137C236.085,738.138 236.998,703.179 271.212,648.452C260.682,641.26 259.612,638.45 243.873,630.143C219.4,617.227 221.622,613.988 196.454,601.907C189.606,598.62 153.784,565.95 142.947,547.863C140.278,543.409 138.992,539.472 138.866,536.625L139.125,533.411L140.53,529.911C167.829,485.812 213.37,452.846 243.007,438.005C250.656,434.174 257.327,431.53 262.465,430.093ZM441.058,287.341L440.988,287.614L439.381,289.96L438.045,291.058L436.306,291.925L433.039,292.381L430.062,291.631C427.387,290.508 411.567,283.002 407.313,280.109C387.112,266.372 359.191,260.991 333.004,259.216C295.7,256.687 261.715,261.656 257.05,262.408C256.741,262.894 256.032,264.046 255.664,264.966C254.296,268.382 253.385,272.959 252.72,278.179C249.313,304.917 252.952,347.347 254.064,350.681C264.218,381.144 278.595,425.608 280.318,433.981L280.634,437.375L279.841,440.444L278.573,442.367L276.98,443.757L273.842,445.012L270.829,444.974C270.025,444.813 268.829,445.238 267.239,445.659C262.864,446.817 257.055,449.176 250.296,452.561C222.994,466.233 181.212,496.287 155.555,536.594C156.494,538.357 158.82,542.568 161.19,545.654C173.702,561.937 198.21,584.693 203.499,587.231C228.948,599.447 226.724,602.686 251.471,615.746C270.608,625.846 268.655,627.966 286.709,639.09C288.581,640.244 289.907,642.106 290.384,644.253C290.861,646.4 290.45,648.649 289.242,650.487C253.639,704.707 252.392,738.549 253.39,764.511C254.384,790.346 255.106,805.677 255.999,814.808C256.26,817.482 256.686,819.943 257.003,821.564C337.298,828.941 408.22,803.994 436.568,799.742C440.714,799.12 444.655,801.749 445.672,805.817C465.249,884.127 502.037,899.248 531.83,926.2C582.305,891.351 591.675,872.724 605.143,859.256C630.045,834.354 635.719,810.956 638.098,806.205C639.839,802.729 643.794,800.969 647.542,802.004C688.723,813.371 693.572,827.194 819.735,825.014C819.943,822.97 820.162,820.301 820.212,817.804C820.512,802.773 819.125,780.02 819.125,766.636C819.125,695.667 818.883,695.069 800.014,656.074C799.017,654.013 798.934,651.629 799.784,649.504C800.634,647.379 802.34,645.711 804.483,644.907C836.498,632.901 834.026,628.576 864.679,613.25C897.378,596.9 921.63,562.683 929.706,550.422C910.008,506.761 903.797,510.216 888.861,493.786C853.935,455.368 811.067,444.907 803.337,443.02C800.91,442.428 798.89,440.754 797.857,438.479C796.823,436.204 796.892,433.581 798.043,431.364C814.078,400.465 814.012,400.31 818.566,357.05C824.174,303.773 831.782,300.242 814.763,262.688C730.803,260.736 716.425,267.035 645.477,287.985C643.352,288.613 641.062,288.346 639.137,287.247C637.212,286.148 635.818,284.312 635.278,282.162C627.782,252.332 596.114,198.089 565.108,171.387C558.93,166.067 552.813,161.871 546.914,159.381C542.136,157.364 537.591,156.461 533.405,157.508C522.887,160.137 511.277,170.198 499.726,183.039C480.938,203.925 462.981,232.499 452.052,254.398C447.963,262.59 444.868,269.811 443.159,275.282C442.494,277.409 442.05,280.035 441.937,280.742C442.614,283.013 442.248,285.41 441.058,287.341Z"/>
</svg>
